<?xml version="1.0" standalone="no"?><!DOCTYPE svg PUBLIC "-//W3C//DTD SVG 1.1//EN" "http://www.w3.org/Graphics/SVG/1.1/DTD/svg11.dtd"><svg t="1685092331998" class="icon" viewBox="0 0 1024 1024" version="1.1" xmlns="http://www.w3.org/2000/svg" p-id="5627" width="32" height="32" xmlns:xlink="http://www.w3.org/1999/xlink"><path d="M719.904 646.592l-205.184-130.112v-105.6c100.896 66.112 216.8 141.088 216.8 141.088s139.2 45.6 139.2-106.496c0-92.992-172.512-112.096-197.216-11.808l-69.6-47.296s24.192-101.504 162.4-106.496c138.208-4.896 192 94.592 190.912 199.616-1.216 104.704-136 198.304-237.312 167.104z m-158.912-164.576c-4 19.008-23.008 33.696-47.616 33.696l-6.912-4.288-217.312-137.792s-118.208-32.8-128.416 83.392c-10.208 116.096 147.392 129.504 186.816 23.808l81.696 47.584s-65.088 119.104-198.496 119.104c-133.504 0-230.208-175.296-116.8-297.792 113.504-122.4 218.592-64.608 256.992-35.712 16.384 12.384 85.312 57.888 158.592 105.888l3.104 2.4c28.288 18.208 33.408 35.616 28.288 59.712z m-126.88 264.288h212c16.704 0 30.304 13.6 30.304 30.304v15.104a30.336 30.336 0 0 1-30.304 30.304h-212a30.336 30.336 0 0 1-30.304-30.304v-15.104c0-16.8 13.6-30.304 30.304-30.304z" p-id="5628"></path></svg>